<?xml version="1.0" encoding="UTF-8"?>
<svg xmlns="http://www.w3.org/2000/svg" xmlns:xlink="http://www.w3.org/1999/xlink" width="32px" height="32px" viewBox="0 0 32 32" version="1.1">
<g id="surface1">
<path style=" stroke:none;fill-rule:nonzero;fill:rgb(100%,100%,100%);fill-opacity:1;" d="M 10.667969 4.667969 C 10.667969 3.5625 11.5625 2.667969 12.667969 2.667969 L 19.332031 2.667969 C 20.4375 2.667969 21.332031 3.5625 21.332031 4.667969 L 21.332031 6 C 21.332031 7.105469 20.4375 8 19.332031 8 L 12.667969 8 C 11.5625 8 10.667969 7.105469 10.667969 6 Z M 10.667969 4.667969 "/>
<path style=" stroke:none;fill-rule:evenodd;fill:rgb(100%,100%,100%);fill-opacity:1;" d="M 8.667969 5.382812 C 6.988281 5.476562 5.929688 5.742188 5.171875 6.503906 C 4 7.675781 4 9.558594 4 13.332031 L 4 21.332031 C 4 25.101562 4 26.988281 5.171875 28.160156 C 6.34375 29.332031 8.230469 29.332031 12 29.332031 L 20 29.332031 C 23.769531 29.332031 25.65625 29.332031 26.828125 28.160156 C 28 26.988281 28 25.101562 28 21.332031 L 28 13.332031 C 28 9.558594 28 7.675781 26.828125 6.503906 C 26.070312 5.742188 25.011719 5.476562 23.332031 5.382812 L 23.332031 6 C 23.332031 8.210938 21.542969 10 19.332031 10 L 12.667969 10 C 10.457031 10 8.667969 8.210938 8.667969 6 Z M 8.332031 14 C 8.332031 13.449219 8.78125 13 9.332031 13 L 22.667969 13 C 23.21875 13 23.667969 13.449219 23.667969 14 C 23.667969 14.550781 23.21875 15 22.667969 15 L 9.332031 15 C 8.78125 15 8.332031 14.550781 8.332031 14 Z M 9.667969 18.667969 C 9.667969 18.113281 10.113281 17.667969 10.667969 17.667969 L 21.332031 17.667969 C 21.886719 17.667969 22.332031 18.113281 22.332031 18.667969 C 22.332031 19.21875 21.886719 19.667969 21.332031 19.667969 L 10.667969 19.667969 C 10.113281 19.667969 9.667969 19.21875 9.667969 18.667969 Z M 11 23.332031 C 11 22.78125 11.449219 22.332031 12 22.332031 L 20 22.332031 C 20.550781 22.332031 21 22.78125 21 23.332031 C 21 23.886719 20.550781 24.332031 20 24.332031 L 12 24.332031 C 11.449219 24.332031 11 23.886719 11 23.332031 Z M 11 23.332031 "/>
</g>
</svg>
