<?xml version="1.0" encoding="UTF-8"?>
<svg xmlns="http://www.w3.org/2000/svg" xmlns:xlink="http://www.w3.org/1999/xlink" width="32px" height="32px" viewBox="0 0 32 32" version="1.1">
<g id="surface1">
<path style=" stroke:none;fill-rule:nonzero;fill:rgb(100%,100%,100%);fill-opacity:1;" d="M 12.667969 2.667969 C 11.5625 2.667969 10.667969 3.5625 10.667969 4.667969 L 10.667969 6 C 10.667969 7.105469 11.5625 8 12.667969 8 L 19.332031 8 C 20.4375 8 21.332031 7.105469 21.332031 6 L 21.332031 4.667969 C 21.332031 3.5625 20.4375 2.667969 19.332031 2.667969 Z M 12.667969 2.667969 "/>
<path style=" stroke:none;fill-rule:evenodd;fill:rgb(100%,100%,100%);fill-opacity:1;" d="M 8.667969 5.382812 C 6.988281 5.476562 5.929688 5.742188 5.171875 6.503906 C 4 7.675781 4 9.558594 4 13.332031 L 4 21.332031 C 4 25.101562 4 26.988281 5.171875 28.160156 C 6.34375 29.332031 8.230469 29.332031 12 29.332031 L 20 29.332031 C 23.769531 29.332031 25.65625 29.332031 26.828125 28.160156 C 28 26.988281 28 25.101562 28 21.332031 L 28 13.332031 C 28 9.558594 28 7.675781 26.828125 6.503906 C 26.070312 5.742188 25.011719 5.476562 23.332031 5.382812 L 23.332031 6 C 23.332031 8.210938 21.542969 10 19.332031 10 L 12.667969 10 C 10.457031 10 8.667969 8.210938 8.667969 6 Z M 20.683594 16.730469 C 21.085938 16.355469 21.109375 15.722656 20.730469 15.316406 C 20.355469 14.914062 19.722656 14.890625 19.316406 15.269531 L 14.285156 19.964844 L 12.683594 18.46875 C 12.277344 18.09375 11.644531 18.113281 11.269531 18.519531 C 10.890625 18.921875 10.914062 19.554688 11.316406 19.929688 L 13.601562 22.0625 C 13.988281 22.421875 14.582031 22.421875 14.96875 22.0625 Z M 20.683594 16.730469 "/>
</g>
</svg>
