<?xml version="1.0" encoding="UTF-8"?>
<svg xmlns="http://www.w3.org/2000/svg" xmlns:xlink="http://www.w3.org/1999/xlink" width="24px" height="24px" viewBox="0 0 24 24" version="1.1">
<g id="surface1">
<path style="fill-rule:nonzero;fill:rgb(100%,100%,100%);fill-opacity:1;stroke-width:1;stroke-linecap:butt;stroke-linejoin:miter;stroke:rgb(100%,100%,100%);stroke-opacity:1;stroke-miterlimit:4;" d="M 20.989583 20.161458 C 19.479167 20.0625 18.291667 18.8125 18.291667 17.286458 C 18.291667 17.234375 18.291667 17.182292 18.296875 17.135417 L 18.296875 17.140625 C 18.291667 17.09375 18.291667 17.036458 18.291667 16.979167 C 18.291667 15.453125 19.484375 14.208333 20.984375 14.114583 L 20.989583 14.114583 C 22.5 14.197917 23.692708 15.442708 23.692708 16.963542 C 23.692708 17.026042 23.692708 17.088542 23.6875 17.145833 L 23.6875 17.140625 C 23.6875 17.1875 23.692708 17.25 23.692708 17.307292 C 23.692708 18.833333 22.5 20.078125 21 20.161458 Z M 11.026042 20.161458 C 9.515625 20.0625 8.328125 18.8125 8.328125 17.286458 C 8.328125 17.234375 8.328125 17.182292 8.333333 17.135417 L 8.333333 17.140625 C 8.328125 17.09375 8.328125 17.036458 8.328125 16.979167 C 8.328125 15.453125 9.515625 14.208333 11.015625 14.114583 L 11.026042 14.114583 C 12.536458 14.197917 13.729167 15.442708 13.729167 16.963542 C 13.729167 17.026042 13.723958 17.088542 13.71875 17.145833 L 13.71875 17.140625 C 13.723958 17.1875 13.723958 17.244792 13.723958 17.302083 C 13.723958 18.828125 12.536458 20.072917 11.036458 20.161458 Z M 26.390625 6.463542 C 24.630208 5.635417 22.583333 4.973958 20.4375 4.59375 L 20.286458 4.572917 C 20.286458 4.572917 20.276042 4.567708 20.270833 4.567708 C 20.239583 4.567708 20.208333 4.588542 20.192708 4.614583 C 19.958333 5.026042 19.703125 5.541667 19.473958 6.067708 L 19.432292 6.177083 C 18.401042 6.010417 17.213542 5.916667 16.005208 5.916667 C 14.791667 5.916667 13.604167 6.010417 12.447917 6.192708 L 12.572917 6.177083 C 12.307292 5.546875 12.046875 5.036458 11.760417 4.536458 L 11.802083 4.614583 C 11.786458 4.588542 11.755208 4.567708 11.71875 4.567708 C 11.713542 4.567708 11.708333 4.567708 11.703125 4.567708 C 9.411458 4.973958 7.364583 5.630208 5.447917 6.526042 L 5.598958 6.463542 C 5.583333 6.46875 5.567708 6.484375 5.5625 6.494792 C 2.708333 10.536458 1 15.567708 1 20.994792 C 1 21.901042 1.046875 22.796875 1.140625 23.677083 L 1.130208 23.567708 C 1.135417 23.59375 1.145833 23.619792 1.166667 23.635417 C 3.307292 25.239583 5.796875 26.526042 8.484375 27.375 L 8.65625 27.421875 C 8.666667 27.427083 8.677083 27.427083 8.6875 27.427083 C 8.71875 27.427083 8.744792 27.411458 8.760417 27.390625 C 9.296875 26.666667 9.807292 25.854167 10.25 24.994792 L 10.296875 24.895833 C 10.302083 24.885417 10.307292 24.869792 10.307292 24.854167 C 10.307292 24.8125 10.28125 24.78125 10.244792 24.765625 L 10.239583 24.765625 C 9.328125 24.411458 8.557292 24.036458 7.822917 23.609375 L 7.901042 23.651042 C 7.875 23.635417 7.854167 23.604167 7.854167 23.567708 C 7.854167 23.536458 7.869792 23.510417 7.890625 23.489583 C 8.046875 23.375 8.208333 23.25 8.359375 23.125 C 8.375 23.114583 8.395833 23.104167 8.416667 23.104167 C 8.432292 23.104167 8.442708 23.109375 8.453125 23.114583 C 10.661458 24.177083 13.255208 24.796875 15.989583 24.796875 C 18.723958 24.796875 21.317708 24.177083 23.630208 23.067708 L 23.526042 23.114583 C 23.536458 23.109375 23.552083 23.104167 23.5625 23.104167 C 23.588542 23.104167 23.609375 23.114583 23.625 23.125 C 23.776042 23.25 23.932292 23.375 24.088542 23.489583 C 24.114583 23.510417 24.130208 23.536458 24.130208 23.567708 C 24.130208 23.604167 24.109375 23.635417 24.083333 23.651042 C 23.421875 24.046875 22.651042 24.416667 21.848958 24.729167 L 21.739583 24.765625 C 21.708333 24.776042 21.682292 24.8125 21.682292 24.854167 C 21.682292 24.869792 21.682292 24.885417 21.692708 24.895833 C 22.192708 25.854167 22.697917 26.671875 23.260417 27.442708 L 23.223958 27.385417 C 23.239583 27.411458 23.265625 27.427083 23.296875 27.427083 C 23.307292 27.427083 23.317708 27.427083 23.328125 27.421875 C 26.192708 26.53125 28.6875 25.239583 30.890625 23.588542 L 30.828125 23.635417 C 30.848958 23.619792 30.864583 23.598958 30.864583 23.567708 C 30.953125 22.786458 31.005208 21.875 31.005208 20.953125 C 31.005208 15.536458 29.291667 10.526042 26.380208 6.421875 L 26.432292 6.5 C 26.421875 6.484375 26.411458 6.46875 26.395833 6.463542 Z M 26.390625 6.463542 " transform="matrix(0.75,0,0,0.75,0,0)"/>
</g>
</svg>
